<svg id="Group_46" data-name="Group 46" xmlns="http://www.w3.org/2000/svg" xmlns:xlink="http://www.w3.org/1999/xlink" width="19.942" height="20" viewBox="0 0 19.942 20">
  <defs>
    <clipPath id="clip-path">
      <rect id="Rectangle_12" data-name="Rectangle 12" width="19.942" height="20" fill="none"/>
    </clipPath>
  </defs>
  <g id="Group_45" data-name="Group 45" clip-path="url(#clip-path)">
    <path id="Path_116" data-name="Path 116" d="M13.477,10.7A5.35,5.35,0,1,0,8.138,5.35,5.349,5.349,0,0,0,13.477,10.7M9.783,7.377h1.3a6.519,6.519,0,0,0,.814,1.884,4.239,4.239,0,0,1-2.11-1.884M9.264,5.35a4.253,4.253,0,0,1,.076-.788h1.5c-.022.247-.037.5-.037.755a8.427,8.427,0,0,0,.056.934h-1.5a4.181,4.181,0,0,1-.1-.9m4.213-4.064a4.565,4.565,0,0,1,1.28,2.149H12.2a4.565,4.565,0,0,1,1.28-2.149m1.5,3.276a6.9,6.9,0,0,1,.043.754,7.31,7.31,0,0,1-.066.935H12a7.306,7.306,0,0,1-.067-.934,7.191,7.191,0,0,1,.043-.755Zm2.711.788a4.245,4.245,0,0,1-.1.9h-1.5a8.207,8.207,0,0,0,.057-.935c0-.256-.015-.507-.037-.754h1.5a4.253,4.253,0,0,1,.076.788M13.477,9.412a4.507,4.507,0,0,1-1.238-2.035h2.477a4.509,4.509,0,0,1-1.239,2.035m1.585-.152a6.54,6.54,0,0,0,.814-1.883H17.17A4.242,4.242,0,0,1,15.062,9.26m2.164-5.825h-1.3a6.349,6.349,0,0,0-.838-1.987,4.23,4.23,0,0,1,2.142,1.987M11.871,1.447a6.355,6.355,0,0,0-.838,1.988H9.726a4.246,4.246,0,0,1,2.145-1.988" fill="#01a982"/>
    <path id="Path_117" data-name="Path 117" d="M19.464,11.232a1.63,1.63,0,0,0-2.3,0l-2.34,2.332h-2.3a1.672,1.672,0,0,0-1.588-2.245H4.5L2.778,13.038,0,15.8,4.173,20,6.66,17.516h9.018l3.786-3.981a1.628,1.628,0,0,0,0-2.3M1.592,15.808l1.244-1.239,2.582,2.6-1.242,1.24Zm17.066-3.06-3.463,3.641H6.235l-2.6-2.614L4.97,12.446h5.962a.56.56,0,0,1,.038,1.118H9.243V14.69h.313V14.7h1.376c.026,0,.05-.007.076-.008h4.28l2.671-2.661a.5.5,0,0,1,.709,0,.49.49,0,0,1,.147.353.508.508,0,0,1-.157.365"/>
  </g>
</svg>
