<svg id="Group_49" data-name="Group 49" xmlns="http://www.w3.org/2000/svg" width="20" height="20" viewBox="0 0 20 20">
  <rect id="Rectangle_18" data-name="Rectangle 18" width="1.111" height="3.889" transform="translate(6.111 8.055)"/>
  <rect id="Rectangle_19" data-name="Rectangle 19" width="1.111" height="3.889" transform="translate(12.778 8.055)"/>
  <rect id="Rectangle_20" data-name="Rectangle 20" width="1.111" height="2.222" transform="translate(9.445)" fill="#01a982"/>
  <rect id="Rectangle_21" data-name="Rectangle 21" width="1.111" height="4.444" transform="translate(9.445 4.445)" fill="#01a982"/>
  <rect id="Rectangle_22" data-name="Rectangle 22" width="1.111" height="4.444" transform="translate(9.445 11.112)" fill="#01a982"/>
  <rect id="Rectangle_23" data-name="Rectangle 23" width="1.111" height="2.222" transform="translate(9.445 17.778)" fill="#01a982"/>
  <rect id="Rectangle_24" data-name="Rectangle 24" width="1.111" height="5" transform="translate(6.111 0.556)"/>
  <rect id="Rectangle_25" data-name="Rectangle 25" width="1.111" height="5" transform="translate(12.778 0.556)"/>
  <rect id="Rectangle_26" data-name="Rectangle 26" width="1.111" height="5" transform="translate(6.111 14.445)"/>
  <rect id="Rectangle_27" data-name="Rectangle 27" width="1.111" height="5" transform="translate(12.778 14.445)"/>
  <rect id="Rectangle_28" data-name="Rectangle 28" width="5.556" height="1.111" transform="translate(14.444 9.444)"/>
  <rect id="Rectangle_29" data-name="Rectangle 29" width="5" height="1.111" transform="translate(0 9.444)"/>
  <rect id="Rectangle_30" data-name="Rectangle 30" width="4.444" height="1.111" transform="translate(7.778 9.445)"/>
  <rect id="Rectangle_31" data-name="Rectangle 31" width="1.667" height="1.111" transform="translate(17.778 6.111)" fill="#01a982"/>
  <rect id="Rectangle_32" data-name="Rectangle 32" width="1.667" height="1.111" transform="translate(17.778 12.778)" fill="#01a982"/>
  <rect id="Rectangle_33" data-name="Rectangle 33" width="4.444" height="1.111" transform="translate(11.112 6.111)" fill="#01a982"/>
  <rect id="Rectangle_34" data-name="Rectangle 34" width="4.444" height="1.111" transform="translate(11.112 12.778)" fill="#01a982"/>
  <rect id="Rectangle_35" data-name="Rectangle 35" width="4.444" height="1.111" transform="translate(4.445 6.111)" fill="#01a982"/>
  <rect id="Rectangle_36" data-name="Rectangle 36" width="4.444" height="1.111" transform="translate(4.445 12.778)" fill="#01a982"/>
  <rect id="Rectangle_37" data-name="Rectangle 37" width="1.667" height="1.111" transform="translate(0.555 6.111)" fill="#01a982"/>
  <rect id="Rectangle_38" data-name="Rectangle 38" width="1.667" height="1.111" transform="translate(0.555 12.778)" fill="#01a982"/>
  <rect id="Rectangle_39" data-name="Rectangle 39" width="4.444" height="1.111" transform="translate(7.778 2.778)"/>
  <path id="Path_127" data-name="Path 127" d="M14.444,3.889h1.667v5h1.111V2.778H14.444Z"/>
  <path id="Path_128" data-name="Path 128" d="M5.556,16.111H3.889v-5H2.778v6.111H5.556Z"/>
  <path id="Path_129" data-name="Path 129" d="M16.111,11.111v5H14.444v1.111h2.778V11.111Z"/>
  <path id="Path_130" data-name="Path 130" d="M3.889,8.889v-5H5.556V2.778H2.778V8.889Z"/>
  <rect id="Rectangle_40" data-name="Rectangle 40" width="4.444" height="1.111" transform="translate(7.778 16.111)"/>
</svg>
