<svg id="Group_60" data-name="Group 60" xmlns="http://www.w3.org/2000/svg" xmlns:xlink="http://www.w3.org/1999/xlink" width="99.71" height="100" viewBox="0 0 99.71 100">
  <defs>
    <clipPath id="clip-path">
      <rect id="Rectangle_12" data-name="Rectangle 12" width="99.71" height="100" fill="none"/>
    </clipPath>
  </defs>
  <g id="Group_45" data-name="Group 45" clip-path="url(#clip-path)">
    <path id="Path_116" data-name="Path 116" d="M34.833,53.495A26.748,26.748,0,1,0,8.138,26.75,26.747,26.747,0,0,0,34.833,53.495m-18.47-16.61h6.48a32.6,32.6,0,0,0,4.07,9.42,21.2,21.2,0,0,1-10.55-9.42m-2.6-10.135a21.266,21.266,0,0,1,.38-3.94h7.52c-.11,1.235-.185,2.49-.185,3.775a42.133,42.133,0,0,0,.28,4.67h-7.5a20.9,20.9,0,0,1-.495-4.505M34.833,6.43a22.825,22.825,0,0,1,6.4,10.745h-12.8a22.825,22.825,0,0,1,6.4-10.745m7.5,16.38a34.487,34.487,0,0,1,.215,3.77,36.548,36.548,0,0,1-.33,4.675H27.448a36.527,36.527,0,0,1-.335-4.67,35.953,35.953,0,0,1,.215-3.775Zm13.555,3.94a21.223,21.223,0,0,1-.495,4.505H47.9a41.036,41.036,0,0,0,.285-4.675c0-1.28-.075-2.535-.185-3.77h7.51a21.268,21.268,0,0,1,.38,3.94M34.833,47.06a22.537,22.537,0,0,1-6.19-10.175H41.028A22.544,22.544,0,0,1,34.833,47.06m7.925-.76a32.7,32.7,0,0,0,4.07-9.415H53.3A21.209,21.209,0,0,1,42.758,46.3m10.82-29.125h-6.52a31.745,31.745,0,0,0-4.19-9.935,21.149,21.149,0,0,1,10.71,9.935M26.8,7.235a31.774,31.774,0,0,0-4.19,9.94H16.078A21.23,21.23,0,0,1,26.8,7.235" transform="translate(32.552 0)" fill="#01a982"/>
    <path id="Path_117" data-name="Path 117" d="M97.32,13.134a8.148,8.148,0,0,0-11.5,0l-11.7,11.66H62.6a8.362,8.362,0,0,0-7.94-11.225H22.485l-8.6,8.595L0,35.989,20.865,56.974,33.3,44.554H78.39L97.32,24.649a8.142,8.142,0,0,0,0-11.515M7.96,36.014l6.22-6.2L27.09,42.8,20.88,49Zm85.33-15.3-17.315,18.2h-44.8l-13-13.07L24.85,19.2H54.66a2.8,2.8,0,0,1,.19,5.59H46.215v5.63H47.78v.04h6.88c.13,0,.25-.035.38-.04h21.4l13.355-13.3a2.5,2.5,0,0,1,3.545,0,2.452,2.452,0,0,1,.735,1.765,2.538,2.538,0,0,1-.785,1.825" transform="translate(0 43.026)"/>
  </g>
</svg>
