<svg xmlns="http://www.w3.org/2000/svg" width="135.979" height="56.431" viewBox="0 0 135.979 56.431">
  <g id="Global_Nav" data-name="Global Nav" transform="translate(-122 -24.13)">
    <g id="HPE_Logo" data-name="HPE Logo" transform="translate(122 24.13)">
      <rect id="HPE_Logo-2" data-name="HPE Logo" width="135.916" height="56" transform="translate(0 0.321)" fill="none"/>
      <g id="Group" transform="translate(0.199)">
        <path id="element" d="M46.463,0V13.279H0V0Zm-2.9,10.39v-7.5H2.9v7.5H43.559Z" transform="translate(0)" fill="#00b388"/>
        <path id="Vector" d="M2.9,13.279H0V0H2.9V5.248H8.093V0H11V13.279h-2.9v-5.5H2.9Zm14.691.212a4.607,4.607,0,0,1-4.954-4.886c0-2.954,1.965-4.994,4.57-4.994,2.84,0,4.249,1.891,4.249,4.717V9.391H15.4a2.4,2.4,0,0,0,2.648,1.847,4.552,4.552,0,0,0,2.626-.764h.107v2.188a5.422,5.422,0,0,1-3.181.829ZM15.4,7.457h3.459c-.064-.977-.47-1.657-1.6-1.657A1.752,1.752,0,0,0,15.4,7.457Zm13.645.255-1.494,5.567H25L22.1,3.93V3.824h2.776l1.58,5.588,1.494-5.588h2.263l1.516,5.588,1.6-5.588H36V3.93l-2.9,9.349H30.557Zm11.68,5.779c-2.306,0-3.246-.914-3.246-3.059V0h2.819V10.241c0,.659.256.892.811.892a2.121,2.121,0,0,0,.641-.128h.043v2.316a3.392,3.392,0,0,1-1.067.17Zm6.812,0a4.607,4.607,0,0,1-4.954-4.886c0-2.954,1.964-4.994,4.569-4.994,2.84,0,4.249,1.891,4.249,4.717V9.391H45.332a2.4,2.4,0,0,0,2.648,1.847,4.555,4.555,0,0,0,2.627-.764h.107v2.188a5.425,5.425,0,0,1-3.182.829Zm-2.2-6.034h3.459c-.064-.977-.47-1.657-1.6-1.657A1.752,1.752,0,0,0,45.333,7.457ZM62.97,3.824h2.093V6.076H62.97V9.922c0,.828.32,1.211,1.174,1.211A2.684,2.684,0,0,0,65,11h.064v2.21a5.065,5.065,0,0,1-1.73.277c-2.286,0-3.182-1.041-3.182-3.442V6.076H56.543V9.922c0,.828.32,1.211,1.174,1.211a2.68,2.68,0,0,0,.854-.128h.064v2.21a5.063,5.063,0,0,1-1.73.277c-2.285,0-3.182-1.041-3.182-3.442V6.076H52.271V3.825h1.452V1.233h2.819V3.825h3.609V1.233H62.97V3.824Zm16.715.68c0,2.89-1.943,4.462-4.891,4.462H72.724v4.313h-2.9V0h4.974C77.743,0,79.686,1.572,79.686,4.5ZM74.56,6.523A1.915,1.915,0,0,0,76.739,4.5,1.926,1.926,0,0,0,74.56,2.443H72.724V6.523Zm11.4,5.821a3.206,3.206,0,0,1-2.519,1.1,3.094,3.094,0,0,1-3.374-3.123c0-1.849,1.516-3.081,3.694-3.081a7.527,7.527,0,0,1,2.114.319v-.17c0-1.02-.576-1.466-2.092-1.466a5.448,5.448,0,0,0-2.669.722h-.107V4.4a7.034,7.034,0,0,1,3.266-.786c2.862,0,4.42,1.36,4.42,3.74v5.928H85.962v-.935Zm-.085-2.04V9.5a3.3,3.3,0,0,0-1.559-.318c-.918,0-1.473.34-1.473,1.1,0,.787.555,1.127,1.388,1.127A1.652,1.652,0,0,0,85.878,10.3Zm4.249-1.742A4.741,4.741,0,0,1,95.1,3.612a4.5,4.5,0,0,1,2.648.722v2.4h-.107a3.548,3.548,0,0,0-2.178-.744,2.388,2.388,0,0,0-2.477,2.571,2.371,2.371,0,0,0,2.477,2.549,3.548,3.548,0,0,0,2.178-.744h.107v2.4a4.493,4.493,0,0,1-2.648.723,4.723,4.723,0,0,1-4.975-4.929Zm12.213.425v4.291H99.522V0h2.818V7.563l2.841-3.739h3.2V3.93l-3.416,4.292,3.416,4.951v.106h-3.224Zm12.45,3.356a3.208,3.208,0,0,1-2.52,1.1,3.094,3.094,0,0,1-3.374-3.123c0-1.849,1.516-3.081,3.695-3.081a7.526,7.526,0,0,1,2.114.319v-.17c0-1.02-.577-1.466-2.092-1.466a5.454,5.454,0,0,0-2.67.722h-.106V4.4a7.038,7.038,0,0,1,3.267-.786c2.861,0,4.42,1.36,4.42,3.74v5.928h-2.733v-.935ZM114.7,10.3V9.5a3.306,3.306,0,0,0-1.559-.318c-.918,0-1.473.34-1.473,1.1,0,.787.555,1.127,1.388,1.127A1.652,1.652,0,0,0,114.7,10.3Zm7.559-4.95a2.513,2.513,0,0,1,2.306-1.636,2.249,2.249,0,0,1,.917.17V6.565h-.106a3.236,3.236,0,0,0-1.239-.213,1.775,1.775,0,0,0-1.794,1.487v5.44H119.53V3.823h2.734V5.354ZM133.045,12.3a3.376,3.376,0,0,1-2.818,1.189c-2.435,0-3.993-2.209-3.993-4.929s1.559-4.951,3.993-4.951A3.389,3.389,0,0,1,132.96,4.7V0h2.819V13.279h-2.734Zm-.085-2.231V7.032a2.088,2.088,0,0,0-1.793-.977c-1.238,0-2.071.892-2.071,2.507s.833,2.486,2.071,2.486a2.089,2.089,0,0,0,1.793-.977ZM0,17.615H8.242v1.614H1.858v4.057H7.644v1.572H1.858v4.42H8.242v1.614H0Zm15.054,3.739c2.114,0,3.288,1.381,3.288,3.654v5.885H16.57V25.051a1.849,1.849,0,0,0-1.964-2.083,2.467,2.467,0,0,0-2.37,1.7v6.225H10.463V21.546h1.772V22.9a3.246,3.246,0,0,1,2.818-1.551Zm8.05.191h2.412v1.509H23.1v5.035c0,1.063.555,1.424,1.558,1.424a2.28,2.28,0,0,0,.79-.127h.064v1.508a2.88,2.88,0,0,1-1.11.192c-2.2,0-3.075-1-3.075-2.826v-5.2H19.709V21.546h1.622V19.061H23.1Zm8.178,9.539a4.413,4.413,0,0,1-4.634-4.76c0-2.932,1.751-4.971,4.292-4.971,2.584,0,3.929,1.849,3.929,4.589v.807H28.421a2.869,2.869,0,0,0,3.1,2.8,4.017,4.017,0,0,0,2.626-.85h.064v1.552a4.67,4.67,0,0,1-2.926.828Zm-2.8-5.78h4.676c-.064-1.38-.747-2.442-2.2-2.442A2.581,2.581,0,0,0,28.485,25.305ZM38.734,22.99A2.48,2.48,0,0,1,41.062,21.4a2.25,2.25,0,0,1,.918.148v1.741h-.064a2.749,2.749,0,0,0-1.11-.191,2.158,2.158,0,0,0-2.071,1.7v6.1H36.962V21.546h1.772ZM48,21.354c2.8,0,4.292,2.273,4.292,4.865S50.8,31.085,48,31.085a3.407,3.407,0,0,1-2.626-1.233v4.632H43.6V21.545h1.772v1.062A3.358,3.358,0,0,1,48,21.354Zm-.3,8.137c1.751,0,2.776-1.381,2.776-3.272,0-1.87-1.025-3.271-2.776-3.271a2.652,2.652,0,0,0-2.327,1.487v3.591A2.633,2.633,0,0,0,47.7,29.491Zm8.456-6.5A2.478,2.478,0,0,1,58.486,21.4a2.249,2.249,0,0,1,.918.148v1.741H59.34a2.748,2.748,0,0,0-1.11-.191,2.157,2.157,0,0,0-2.071,1.7v6.1H54.386V21.546h1.772V22.99Zm5.808-5.226a1.1,1.1,0,1,1,0,2.209,1.1,1.1,0,1,1,0-2.209Zm-.875,3.782h1.772v9.347H61.091Zm8.093,3.888c1.345.424,2.84.977,2.84,2.762,0,1.912-1.58,2.89-3.608,2.89a5.476,5.476,0,0,1-3.182-.85V28.557h.085A4.609,4.609,0,0,0,68.394,29.6c1,0,1.9-.383,1.9-1.19,0-.828-.747-1.019-2.221-1.508-1.324-.425-2.8-.914-2.8-2.677,0-1.806,1.494-2.868,3.4-2.868a5.082,5.082,0,0,1,2.883.765v1.7H71.49a4.283,4.283,0,0,0-2.776-.977c-1.111,0-1.73.489-1.73,1.148,0,.743.683.955,2.2,1.445ZM78.2,31.085a4.412,4.412,0,0,1-4.634-4.76c0-2.932,1.751-4.971,4.292-4.971,2.584,0,3.929,1.849,3.929,4.589v.807H75.333a2.869,2.869,0,0,0,3.1,2.8,4.017,4.017,0,0,0,2.627-.85h.064v1.552a4.667,4.667,0,0,1-2.925.828Zm-2.8-5.78h4.675c-.063-1.38-.747-2.442-2.2-2.442A2.581,2.581,0,0,0,75.4,25.305Z" transform="translate(0 21.947)"/>
      </g>
    </g>
  </g>
</svg>
