<svg id="Group_43" data-name="Group 43" xmlns="http://www.w3.org/2000/svg" width="20" height="20" viewBox="0 0 20 20">
  <path id="Path_107" data-name="Path 107" d="M61.589,52.083H52.083v4.753h1.111V53.194H65.725V65.725H53.194V61.589H52.083v5.247H66.836V52.083Z" transform="translate(-46.836 -46.836)"/>
  <path id="Path_108" data-name="Path 108" d="M77.206,77.207v2.222h1.111V78.318h7.376v7.376H78.318V84.182H77.206v2.623h9.6v-9.6Z" transform="translate(-69.429 -69.429)"/>
  <path id="Path_109" data-name="Path 109" d="M35.64,33.418H34.529v1.111H27.153V27.153h7.376v1.512H35.64V26.042h-9.6v9.6h9.6Z" transform="translate(-23.419 -23.418)" fill="#01a982"/>
  <path id="Path_110" data-name="Path 110" d="M0,0V14.753H14.753V10H13.642v3.643H1.111V1.111H13.642V5.247h1.111V0Z" fill="#01a982"/>
</svg>
