<svg id="Group_42" data-name="Group 42" xmlns="http://www.w3.org/2000/svg" xmlns:xlink="http://www.w3.org/1999/xlink" width="20" height="20" viewBox="0 0 20 20">
  <defs>
    <clipPath id="clip-path">
      <rect id="Rectangle_10" data-name="Rectangle 10" width="20" height="20" fill="none"/>
    </clipPath>
  </defs>
  <path id="Path_105" data-name="Path 105" d="M77.248,77.247H71.692V71.691h5.556ZM72.8,76.136h3.333V72.8H72.8Z" transform="translate(-64.47 -64.469)" fill="#01a982"/>
  <g id="Group_41" data-name="Group 41">
    <g id="Group_40" data-name="Group 40" clip-path="url(#clip-path)">
      <path id="Path_106" data-name="Path 106" d="M20,10a1.664,1.664,0,0,0-1.227-1.6,8.959,8.959,0,0,0-7.2-7.257,1.656,1.656,0,0,0-3.143-.017,8.958,8.958,0,0,0-7.3,7.3,1.656,1.656,0,0,0,.018,3.145,8.962,8.962,0,0,0,7.252,7.2,1.658,1.658,0,0,0,3.207-.017,8.962,8.962,0,0,0,7.149-7.147A1.665,1.665,0,0,0,20,10M10,1.111a.556.556,0,1,1-.556.556A.556.556,0,0,1,10,1.111M1.667,10.556A.556.556,0,1,1,2.222,10a.556.556,0,0,1-.556.556M10,18.889a.556.556,0,1,1,.556-.555.556.556,0,0,1-.556.555m1.513-1.246a1.668,1.668,0,0,0-.957-.874v-2.88H9.444v2.88a1.666,1.666,0,0,0-.965.888,7.854,7.854,0,0,1-6.21-6.108,1.667,1.667,0,0,0,.962-.994h2.88V9.444H3.231a1.666,1.666,0,0,0-.978-1A7.85,7.85,0,0,1,8.445,2.25a1.664,1.664,0,0,0,1,.98v2.88h1.111V3.231a1.666,1.666,0,0,0,.995-.965,7.852,7.852,0,0,1,6.11,6.213,1.666,1.666,0,0,0-.891.966h-2.88v1.111h2.88a1.666,1.666,0,0,0,.875.958,7.856,7.856,0,0,1-6.132,6.13m6.821-7.087A.556.556,0,1,1,18.889,10a.556.556,0,0,1-.556.556"/>
    </g>
  </g>
</svg>
