<svg id="Group_39" data-name="Group 39" xmlns="http://www.w3.org/2000/svg" xmlns:xlink="http://www.w3.org/1999/xlink" width="13.333" height="20" viewBox="0 0 13.333 20">
  <defs>
    <clipPath id="clip-path">
      <rect id="Rectangle_9" data-name="Rectangle 9" width="13.333" height="20" fill="none"/>
    </clipPath>
  </defs>
  <g id="Group_38" data-name="Group 38" clip-path="url(#clip-path)">
    <path id="Path_103" data-name="Path 103" d="M10.556,6.667V3.889a3.889,3.889,0,1,0-7.778,0V6.667H0V20H13.333V6.667ZM3.889,3.889a2.778,2.778,0,1,1,5.556,0V6.667H3.889Zm8.333,12.778H1.111V7.778H12.222ZM1.111,17.778H12.222v1.111H1.111Z"/>
    <path id="Path_104" data-name="Path 104" d="M52.966,95.418a1.667,1.667,0,1,0-2.222,1.564v2.325h1.111V96.982a1.664,1.664,0,0,0,1.111-1.564m-1.667.556a.556.556,0,1,1,.556-.556.556.556,0,0,1-.556.556" transform="translate(-44.633 -84.307)" fill="#00b187"/>
  </g>
</svg>
