<svg id="Group_44" data-name="Group 44" xmlns="http://www.w3.org/2000/svg" width="13.333" height="20" viewBox="0 0 13.333 20">
  <path id="Path_111" data-name="Path 111" d="M6.111,3.333H2.222V7.222H6.111ZM3.333,4.444H5V6.111H3.333Z" fill="#01a982"/>
  <path id="Path_112" data-name="Path 112" d="M11.111,3.333H7.222V7.222h3.889ZM10,6.111H8.333V4.444H10Z"/>
  <path id="Path_113" data-name="Path 113" d="M6.111,8.333H2.222v3.889H6.111ZM5,11.111H3.333V9.444H5Z"/>
  <path id="Path_114" data-name="Path 114" d="M11.111,8.333H7.222v3.889h3.889ZM10,11.111H8.333V9.444H10Z"/>
  <path id="Path_115" data-name="Path 115" d="M1.111,15.556H12.222V18.89H1.111Zm0-14.445H12.222V14.444H1.111ZM0,20H13.333V0H0Z"/>
  <rect id="Rectangle_11" data-name="Rectangle 11" width="1.111" height="1.111" transform="translate(6.111 16.667)"/>
</svg>
